# xmcd
#
# Track frame offsets: 
#        150
#        18890
#        34165
#        69960
#        87665
#        120122
#        138255
#        158307
#        178950
#
# Disc length: 2713 seconds
#
# Revision: 4
# Processed by: cddbd v1.5.2PL0 Copyright (c) Steve Scherf et al.
# Submitted via: ExactAudioCopy v0.95b4
#
DISCID=650a9709
DTITLE=Pinetop Perkins - Blues Legend
DYEAR=1991
DGENRE=Blues
TTITLE0=Kidney Stew
TTITLE1=Yonder's Wall
TTITLE2=Sunnyland Slim
TTITLE3=Hi-Heel Sneakers
TTITLE4=Whiskey Headed Woman
TTITLE5=For You My Love
TTITLE6=Just Keep On Drinking
TTITLE7=Got My Mojo Working
TTITLE8=Merry Christmas Baby
EXTD=
EXTT0=
EXTT1=
EXTT2=
EXTT3=
EXTT4=
EXTT5=
EXTT6=
EXTT7=
EXTT8=
PLAYORDER=
